<?xml version="1.0" encoding="UTF-8"?>
<svg id="Layer_2" data-name="Layer 2" xmlns="http://www.w3.org/2000/svg" viewBox="0 0 56.69 25.51">
  <defs>
    <style>
      .cls-1 {
        fill: #ffffff;
        stroke-width: 0px;
      }
    </style>
  </defs>
  <g id="Layer_1-2" data-name="Layer 1">
    <g>
      <rect class="cls-1" y="11.34" width="56.69" height="2.83"/>
      <rect class="cls-1" y="17.01" width="56.69" height="2.84"/>
      <rect class="cls-1" y="22.68" width="56.69" height="2.84"/>
      <polygon class="cls-1" points="0 8.5 8.5 8.5 8.5 2.83 14.17 2.83 14.17 8.5 25.51 8.5 25.51 2.83 31.18 2.83 31.18 8.5 42.52 8.5 42.52 2.83 48.19 2.83 48.19 8.5 56.69 8.5 56.69 5.67 51.02 5.67 51.02 0 39.69 0 39.69 5.67 34.02 5.67 34.02 0 22.68 0 22.68 5.67 17.01 5.67 17.01 0 5.67 0 5.67 5.67 0 5.67 0 8.5"/>
    </g>
  </g>
</svg>